# xmcd
#
# Track frame offsets: 
#        150
#        16506
#        27282
#        41938
#        56682
#        68803
#        81398
#        94069
#        104707
#        117551
#        131617
#        142903
#
# Disc length: 2077 seconds
#
# Revision: 1
# Processed by: cddbd v1.5.2PL0 Copyright (c) Steve Scherf et al.
# Submitted via: ExactAudioCopy v1.0b3
#
DISCID=a7081b0c
DTITLE=Tom Jones - Tom Jones CD1
DYEAR=1900
DGENRE=
TTITLE0=TON JONES - SHE´S A LADY
TTITLE1=TOM JONES - GREEN GREEN GRASS OF HOME
TTITLE2=TOM JONES - UNCHAINED MELODY
TTITLE3=TOM JONES - I CAN´T STOP LOVING YOU
TTITLE4=TOM JONES - ENDLESS LOVE
TTITLE5=TOM JONES - BEHIND CLOSED DOORS
TTITLE6=TOM JONES - AS TIME GOES BY
TTITLE7=TOM JONES - I GET A KICK OUT OF YOU
TTITLE8=TOM JONES - IF EVER I WOULD LEAVE YOU
TTITLE9=TOM JONES - TOO MUCH, TOO LITTLE, TOO LATE
TTITLE10=TOM JONES - WHENEVER I CALLED YOU FRIEND
TTITLE11=TOM JONES - BRIDGE OVER TROUBLED WATER
EXTD=
EXTT0=
EXTT1=
EXTT2=
EXTT3=
EXTT4=
EXTT5=
EXTT6=
EXTT7=
EXTT8=
EXTT9=
EXTT10=
EXTT11=
PLAYORDER=
